<?xml version="1.0" encoding="UTF-8" standalone="no"?>
<!-- Created with Inkscape (http://www.inkscape.org/) -->

<svg
   xmlns:dc="http://purl.org/dc/elements/1.1/"
   xmlns:cc="http://creativecommons.org/ns#"
   xmlns:rdf="http://www.w3.org/1999/02/22-rdf-syntax-ns#"
   xmlns:svg="http://www.w3.org/2000/svg"
   xmlns="http://www.w3.org/2000/svg"
   xmlns:sodipodi="http://sodipodi.sourceforge.net/DTD/sodipodi-0.dtd"
   xmlns:inkscape="http://www.inkscape.org/namespaces/inkscape"
   width="540.37616"
   height="392.25677"
   viewBox="0 0 142.97453 142.97712"
   version="1.1"
   id="svg834"
   inkscape:version="0.92.4 (5da689c313, 2019-01-14)"
   sodipodi:docname="jlm-logo-white.svg"
   inkscape:export-filename="D:\Visual Art\Logos\jlm-logo-white.png"
   inkscape:export-xdpi="100000"
   inkscape:export-ydpi="100000">
  <title
     id="title837">Jacob Leibowitz Music Logo (white)</title>
  <defs
     id="defs828" />
  <sodipodi:namedview
     id="base"
     pagecolor="#ffffff"
     bordercolor="#666666"
     borderopacity="1.0"
     inkscape:pageopacity="0.0"
     inkscape:pageshadow="2"
     inkscape:zoom="1.979899"
     inkscape:cx="97.469908"
     inkscape:cy="379.71628"
     inkscape:document-units="mm"
     inkscape:current-layer="layer1"
     showgrid="false"
     inkscape:window-width="1920"
     inkscape:window-height="1047"
     inkscape:window-x="-10"
     inkscape:window-y="-10"
     inkscape:window-maximized="1"
     showguides="true"
     inkscape:guide-bbox="true"
     fit-margin-top="0"
     fit-margin-left="0"
     fit-margin-right="0"
     fit-margin-bottom="0"
     inkscape:pagecheckerboard="true"
     units="px">
    <inkscape:grid
       type="xygrid"
       id="grid2245"
       originx="-19.099394"
       originy="-126.59909" />
    <sodipodi:guide
       position="-19.099394,170.67921"
       orientation="0,1"
       id="guide2268"
       inkscape:locked="false" />
  </sodipodi:namedview>
  <metadata
     id="metadata831">
    <rdf:RDF>
      <cc:Work
         rdf:about="">
        <dc:format>image/svg+xml</dc:format>
        <dc:type
           rdf:resource="http://purl.org/dc/dcmitype/StillImage" />
        <dc:title>Jacob Leibowitz Music Logo (white)</dc:title>
        <dc:creator>
          <cc:Agent>
            <dc:title>Jacob Leibowitz</dc:title>
          </cc:Agent>
        </dc:creator>
      </cc:Work>
    </rdf:RDF>
  </metadata>
  <g
     inkscape:label="Layer 1"
     inkscape:groupmode="layer"
     id="layer1"
     transform="translate(-24.900813,-81.416681)">
    <g
       id="g820"
       transform="translate(-5.8319802,26.996442)"
       style="fill:#ffffff;opacity:1"
       inkscape:export-xdpi="100000"
       inkscape:export-ydpi="100000">
      <path
         sodipodi:nodetypes="ccsccccsccccccsccscccccccccsccccccsc"
         inkscape:connector-curvature="0"
         id="path184-6-8-8-9"
         d="m 186.73763,56.480203 c -1.77589,-0.937397 -3.39359,-1.587529 -4.87116,-1.939932 -1.47387,-0.350694 -2.61382,0.06856 -3.37695,1.238162 -0.83216,1.276195 -2.58327,5.408637 -5.28358,12.41774 -3.2884,8.699933 -6.51718,16.370409 -9.653,23.006816 -2.34475,4.337514 -4.58615,8.59938 -6.7744,12.733891 -2.09628,3.67762 -3.33761,5.95222 -4.16683,7.49192 -0.0876,-0.0503 -0.0772,-0.0669 -0.16977,-0.11264 -1.14059,-0.60153 -3.62721,-1.61941 -7.45497,-3.06808 -0.0427,-0.007 -0.51316,-0.17845 -0.58852,-0.20391 -3.26194,-1.7615 -5.35017,-2.87924 -10.58049,-5.71569 C 124.75869,97.405336 114.89443,92.133721 104.24434,86.513431 93.942941,81.483631 85.331974,76.898782 76.316309,72.064797 64.680249,65.476971 51.30706,59.18187 40.207951,54.795381 c -1.039295,0.02305 -1.789076,0.392574 -2.274854,1.136713 -0.763839,1.169143 -1.030723,2.610992 -0.779781,4.315834 0.320362,1.598674 1.370721,2.877139 3.146681,3.814357 0,0 8.340251,3.898176 16.227141,7.955592 3.148122,1.620235 6.045411,3.510535 8.433148,4.92798 6.106017,4.224432 13.89992,8.994141 23.397088,14.290637 5.129147,2.849152 12.007906,6.545242 20.629266,11.094996 0.0382,0.0129 10.14761,5.56347 10.14761,5.56347 8.81699,4.51069 17.0815,7.94552 24.76011,10.28255 0.44896,0.14519 0.93086,0.17086 1.39693,0.2644 0.46938,0.25552 2.4607,1.2897 2.86633,1.51308 -0.002,0.28364 -0.10918,0.81746 -0.28195,1.58417 -0.21118,0.60275 -0.23443,1.28862 -0.0768,2.08685 0.0833,0.61653 0.60229,1.18521 1.49052,1.65372 1.14054,0.60149 2.55075,0.9192 4.23472,0.94794 1.75199,-0.0755 2.88854,-0.5359 3.44368,-1.38694 l 5.52891,-10.39747 10.46459,-19.978526 15.43706,-28.752136 c 0.97494,-1.772916 1.33325,-3.501792 1.08213,-5.206538 -0.18176,-1.811189 -1.08588,-3.146583 -2.73556,-4.017137 z"
         style="font-style:normal;font-variant:normal;font-weight:normal;font-stretch:normal;font-size:4.21922207px;line-height:1.25;font-family:'Ink Free';-inkscape-font-specification:'Ink Free';font-variant-ligatures:normal;font-variant-caps:normal;font-variant-numeric:normal;font-feature-settings:normal;text-align:start;letter-spacing:0px;word-spacing:0px;writing-mode:lr-tb;text-anchor:start;display:inline;fill:#ffffff;fill-opacity:1;stroke:none;stroke-width:0.26458332" />
      <path
         inkscape:connector-curvature="0"
         id="path139-2-3-2-1"
         style="font-style:normal;font-variant:normal;font-weight:normal;font-stretch:normal;font-size:4.21922207px;line-height:1.25;font-family:'Ink Free';-inkscape-font-specification:'Ink Free';font-variant-ligatures:normal;font-variant-caps:normal;font-variant-numeric:normal;font-feature-settings:normal;text-align:start;letter-spacing:0px;word-spacing:0px;writing-mode:lr-tb;text-anchor:start;display:inline;fill:#ffffff;fill-opacity:1;stroke:none;stroke-width:0.26458323"
         d="m 196.84961,132.49832 c -1.66566,-0.24545 -3.46424,-1.47566 -5.39519,-3.69059 -1.80936,-2.26682 -3.13439,-5.46153 -3.97519,-9.58448 -1.50279,-8.01375 -3.27682,-17.68811 -5.32188,-29.023022 -1.90717,-11.314487 -3.31024,-19.830944 -4.20893,-25.549053 -0.28357,-2.041918 0.0185,-3.859569 0.9036,-5.453155 1.02413,-1.573375 3.20115,-2.114832 6.53107,-1.624381 1.10929,0.16348 1.86805,0.585689 2.27601,1.26695 0.53376,0.630518 0.97384,1.798252 1.31942,3.503595 0.0307,0.08051 0.0148,0.31947 -0.0463,0.720739 0.0861,0.364587 0.22335,1.038764 0.41158,2.025292 1.32221,18.331592 3.79824,36.384555 7.42824,54.159175 2.48296,7.80089 7.40206,11.90532 0.0775,13.24826 z"
         sodipodi:nodetypes="ccccccccccccc" />
      <path
         sodipodi:nodetypes="ccscsscsccscsccsccsscsccccscc"
         inkscape:connector-curvature="0"
         id="path244-8-1-5-6-8-0"
         style="font-style:normal;font-variant:normal;font-weight:normal;font-stretch:normal;font-size:4.21922207px;line-height:1.25;font-family:'Ink Free';-inkscape-font-specification:'Ink Free';font-variant-ligatures:normal;font-variant-caps:normal;font-variant-numeric:normal;font-feature-settings:normal;text-align:start;letter-spacing:0px;word-spacing:0px;writing-mode:lr-tb;text-anchor:start;display:inline;fill:#ffffff;fill-opacity:1;stroke:none;stroke-width:0.26458332"
         d="m 102.68136,86.765937 c 2.15228,13.910233 3.94425,27.111393 5.37544,39.603343 1.57567,12.49965 2.35727,24.45516 2.34433,35.86622 -0.0148,13.54271 -2.9887,22.91344 -8.92047,28.11228 -5.933144,5.3234 -15.473721,7.6325 -28.625374,6.92518 C 64.473269,196.82228 54.791909,194.60888 43.81187,190.63223 32.831794,186.65562 23.370289,181.94613 15.427336,176.50265 7.6286681,171.06739 3.73156,166.21777 3.7368242,161.95409 c 0.0037,-1.88024 1.0900924,-3.63975 3.2618357,-5.27768 2.171281,-1.63822 4.6299311,-3.01063 7.3760821,-4.11774 2.746095,-1.10714 4.698001,-1.62861 5.856532,-1.56571 1.878942,0.10141 3.107853,0.60448 3.684681,1.5128 0.720004,1.04181 1.082961,1.81372 1.082574,2.31594 0.01111,0.63297 -0.513746,1.15953 -1.526403,1.60903 -2.312464,0.87907 -3.9035,1.60867 -4.772407,2.18846 -0.865786,0.5817 -1.289776,1.50326 -1.308728,2.74892 -0.0011,3.01102 2.883583,6.55094 8.659743,10.62332 5.921592,4.08018 13.143931,7.72961 21.667462,10.94673 8.523936,3.09204 16.47125,4.83598 23.841938,5.23217 6.358875,0.3421 11.490232,-0.01 15.393736,-1.05313 3.904423,-1.04358 6.94049,-3.51486 9.112717,-7.41083 2.192319,-4.01085 3.262044,-10.10836 3.272997,-18.25825 0.01481,-13.66813 -2.416371,-36.1835 -7.295138,-67.546212 -0.429627,-2.907969 -0.859158,-5.500339 -1.29207,-7.781719 L 87.526371,62.998605 c 0.130416,-1.128507 0.966221,-2.130599 2.370801,-3.078879 1.591985,-0.916769 3.179061,-1.334427 4.770856,-1.248052 1.732972,0.09269 3.106471,1.293658 4.115169,3.607434 1.409473,6.867339 2.858113,13.268488 3.874703,24.473402 z" />
    </g>
  </g>
</svg>
